<?xml version="1.0" encoding="UTF-8"?>
<svg id="Layer_1" data-name="Layer 1" xmlns="http://www.w3.org/2000/svg" viewBox="0 0 63.48 55.35">
  <defs>
    <style>
      .cls-1 {
        fill: #fff;
      }
    </style>
  </defs>
  <path d="M31.35,46.02c-5.09,0-10.18-.07-15.26,.02-4.45,.08-7.19-2.5-7.05-7.08,.21-6.98,.04-13.96,.06-20.95,0-3.94,2.23-6.2,6.13-6.2,10.77-.02,21.54-.03,32.3-.02,4.11,0,6.37,2.3,6.36,6.37,0,7.1,0,14.2,0,21.3,0,4.23-2.09,6.46-6.39,6.53-5.38,.09-10.77,.02-16.15,.02Zm.66-3.48c4.55,0,9.11,.02,13.66,0,3-.01,4.61-1.64,4.61-4.57,0-5.62,0-11.24-.01-16.85,0-3.02-1.6-4.65-4.69-4.72-2.07-.04-4.14,0-6.21,0-6.8,0-13.6-.02-20.4,.01-3.41,.02-4.86,1.5-4.87,4.84,0,5.68,0,11.35,0,17.03,0,2.83,1.4,4.24,4.25,4.25,4.55,.02,9.11,0,13.66,0Z"/>
  <path d="M60.55,21.22c0,5.47,0,10.66-.01,15.86,0,.26-.19,.75-.31,.76-1.52,.08-3.16,.46-4.52,0-1.11-.37-1.1-1.78-.97-3.19,.29-3.21,.03-6.47-.03-9.71,0-.35-.16-.69-.21-1.04-.32-2.43-.1-2.68,2.29-2.68,1.18,0,2.35,0,3.76,0Z"/>
  <path d="M2.76,21.32h5.71c0,1.56,0,3.07,0,4.59,0,3.36,0,6.72,.01,10.09,0,1.44-.61,2.12-2.14,2.11-3.59,0-3.59,.04-3.59-3.48,0-4.36,0-8.72,0-13.3Z"/>
  <path d="M41.1,11.23H23.43c3.57-7.13,13.56-7.55,17.67,0Z"/>
  <path class="cls-1" d="M32.01,42.53c-4.55,0-9.11,.01-13.66,0-2.84-.01-4.24-1.42-4.25-4.25-.02-5.68-.01-11.35,0-17.03,0-3.35,1.46-4.83,4.87-4.84,6.8-.03,13.6-.01,20.4-.01,2.07,0,4.14-.04,6.21,0,3.09,.06,4.69,1.7,4.69,4.72,0,5.62,0,11.24,.01,16.85,0,2.93-1.61,4.55-4.61,4.57-4.55,.02-9.11,0-13.66,0Zm.06-.53s0-.01,0-.02c4.61,0,9.22,.03,13.83-.01,2.46-.02,3.79-1.42,3.79-3.87,.02-5.73,.02-11.47,0-17.2,0-2.61-1.27-3.92-3.92-3.93-9.1-.03-18.2-.02-27.3,0-2.61,0-3.76,1.2-3.78,3.82-.04,5.73-.06,11.47-.06,17.2,0,2.84,1.11,3.97,3.96,3.99,4.49,.03,8.98,0,13.47,0Z"/>
  <path d="M32.07,42c-4.49,0-8.98,.02-13.47,0-2.86-.02-3.97-1.15-3.96-3.99,0-5.73,.02-11.47,.06-17.2,.02-2.62,1.16-3.81,3.78-3.82,9.1-.03,18.2-.04,27.3,0,2.65,0,3.91,1.31,3.92,3.93,.02,5.73,.02,11.47,0,17.2,0,2.46-1.34,3.85-3.79,3.87-4.61,.04-9.22,.01-13.83,.01,0,0,0,.01,0,.02Zm7.4-5.46c3.36,.08,6.49-2.96,6.54-6.36,.06-3.41-2.76-6.26-6.27-6.36-3.41-.09-6.29,2.71-6.4,6.22-.11,3.39,2.75,6.42,6.14,6.5Zm-21.46-6.45c-.01,3.44,2.88,6.44,6.19,6.43,3.18-.01,6.13-3.02,6.18-6.32,.05-3.4-2.85-6.34-6.27-6.36-3.42-.02-6.09,2.72-6.1,6.25Z"/>
  <path class="cls-1" d="M39.46,36.53c-3.38-.08-6.24-3.11-6.14-6.5,.11-3.52,2.99-6.31,6.4-6.22,3.51,.09,6.33,2.95,6.27,6.36-.06,3.4-3.18,6.44-6.54,6.36Zm3.41-6.18c.04-1.9-1.57-3.6-3.4-3.6-1.68,0-3.23,1.59-3.26,3.34-.03,1.69,1.57,3.24,3.31,3.23,1.81-.01,3.31-1.35,3.35-2.97Z"/>
  <path class="cls-1" d="M18,30.08c.01-3.53,2.69-6.27,6.1-6.25,3.42,.02,6.33,2.96,6.27,6.36-.05,3.3-3,6.31-6.18,6.32-3.32,.01-6.21-2.99-6.19-6.43Zm9.51,.12c-.03-1.75-1.7-3.47-3.37-3.46-1.67,0-3.2,1.62-3.19,3.36,.01,1.71,1.6,3.23,3.32,3.18,1.75-.06,3.27-1.5,3.24-3.08Z"/>
  <path d="M42.87,30.36c-.03,1.62-1.54,2.96-3.35,2.97-1.75,.01-3.34-1.54-3.31-3.23,.03-1.75,1.58-3.34,3.26-3.34,1.83,0,3.44,1.7,3.4,3.6Z"/>
  <path d="M27.51,30.2c.03,1.58-1.49,3.02-3.24,3.08-1.72,.05-3.31-1.46-3.32-3.18-.01-1.74,1.52-3.36,3.19-3.36,1.67,0,3.34,1.71,3.37,3.46Z"/>
</svg>